<svg xmlns="http://www.w3.org/2000/svg" width="578.31" height="609.507" viewBox="0 0 578.31 609.507">
  <path id="happy-fit-people-running-and-jogging-together-in-s-2021-08-26-17-34-11-utc" d="M447.033,337.991V157.632A67.49,67.49,0,0,0,413.3,99.193L257.282,9.05a67.515,67.515,0,0,0-67.531,0L33.729,99.193A67.489,67.489,0,0,0,0,157.632V337.991a67.489,67.489,0,0,0,33.729,58.439l156.021,90.143a67.515,67.515,0,0,0,67.531,0L413.3,396.431A67.49,67.49,0,0,0,447.033,337.991Z" transform="matrix(0.951, -0.309, 0.309, 0.951, 0, 138.141)" fill="#d96827"/>
</svg>
