<svg xmlns="http://www.w3.org/2000/svg" xmlns:xlink="http://www.w3.org/1999/xlink" width="49.445" height="37.814" viewBox="0 0 49.445 37.814">
  <defs>
    <clipPath id="clip-path">
      <rect id="Rectangle_49" data-name="Rectangle 49" width="49.445" height="37.814" fill="#d0d0dc"/>
    </clipPath>
  </defs>
  <g id="Group_35" data-name="Group 35" opacity="0.399">
    <g id="Group_34" data-name="Group 34" clip-path="url(#clip-path)">
      <path id="Path_1600" data-name="Path 1600" d="M6.744,12.27A4.669,4.669,0,1,0,2.075,7.6,4.669,4.669,0,0,0,6.744,12.27m0-9A4.33,4.33,0,1,1,2.414,7.6a4.335,4.335,0,0,1,4.33-4.33" transform="translate(-1.5 -2.118)" fill="#d0d0dc"/>
      <path id="Path_1601" data-name="Path 1601" d="M47,12.219h8.434a1.021,1.021,0,0,0,.884-1.531l-4.217-7.3a1.021,1.021,0,0,0-1.768,0l-4.217,7.3A1.021,1.021,0,0,0,47,12.219m-.59-1.362,4.217-7.3a.681.681,0,0,1,1.18,0l4.217,7.3a.681.681,0,0,1-.59,1.022H47a.681.681,0,0,1-.59-1.022" transform="translate(-33.232 -2.076)" fill="#d0d0dc"/>
      <path id="Path_1602" data-name="Path 1602" d="M96.409,13.123h6.215a1.392,1.392,0,0,0,1.392-1.393V5.516a1.392,1.392,0,0,0-1.392-1.392H96.409a1.392,1.392,0,0,0-1.392,1.392v6.214a1.392,1.392,0,0,0,1.392,1.393M95.344,5.516a1.066,1.066,0,0,1,1.065-1.065h6.215a1.066,1.066,0,0,1,1.065,1.065v6.214a1.066,1.066,0,0,1-1.065,1.065H96.409a1.067,1.067,0,0,1-1.065-1.065Z" transform="translate(-68.669 -2.98)" fill="#d0d0dc"/>
      <path id="Path_1603" data-name="Path 1603" d="M140.442,9.032l2.858,1.65a2.187,2.187,0,0,0,2.187,0l2.858-1.65a2.188,2.188,0,0,0,1.094-1.894v-3.3a2.188,2.188,0,0,0-1.094-1.894L145.487.293a2.187,2.187,0,0,0-2.187,0l-2.858,1.65a2.188,2.188,0,0,0-1.094,1.894v3.3a2.188,2.188,0,0,0,1.094,1.894m-.694-5.195a1.792,1.792,0,0,1,.894-1.548L143.5.639a1.787,1.787,0,0,1,1.788,0l2.858,1.65a1.793,1.793,0,0,1,.894,1.548v3.3a1.793,1.793,0,0,1-.894,1.548l-2.858,1.65a1.787,1.787,0,0,1-1.788,0l-2.858-1.65a1.793,1.793,0,0,1-.894-1.548Z" transform="translate(-100.708 0)" fill="#d0d0dc"/>
      <path id="Path_1604" data-name="Path 1604" d="M101.285,99.722a4.669,4.669,0,1,0,4.669,4.669,4.669,4.669,0,0,0-4.669-4.669m0,9a4.33,4.33,0,1,1,4.33-4.33,4.335,4.335,0,0,1-4.33,4.33" transform="translate(-69.825 -72.07)" fill="#d0d0dc"/>
      <path id="Path_1605" data-name="Path 1605" d="M146.646,100.174a1.021,1.021,0,0,0-1.768,0l-4.217,7.3a1.021,1.021,0,0,0,.884,1.531h8.434a1.021,1.021,0,0,0,.885-1.531Zm3.923,8.155a.674.674,0,0,1-.59.341h-8.434a.681.681,0,0,1-.59-1.022l4.217-7.3a.682.682,0,0,1,1.18,0l4.217,7.3a.675.675,0,0,1,0,.681" transform="translate(-101.556 -72.027)" fill="#d0d0dc"/>
      <path id="Path_1606" data-name="Path 1606" d="M5.134,109.914h6.215a1.392,1.392,0,0,0,1.392-1.393v-6.214a1.392,1.392,0,0,0-1.392-1.392H5.134a1.392,1.392,0,0,0-1.392,1.392v6.214a1.392,1.392,0,0,0,1.392,1.393m-1.065-7.607a1.066,1.066,0,0,1,1.065-1.065h6.215a1.066,1.066,0,0,1,1.065,1.065v6.214a1.067,1.067,0,0,1-1.065,1.065H5.134a1.067,1.067,0,0,1-1.065-1.065Z" transform="translate(-2.704 -72.932)" fill="#d0d0dc"/>
      <path id="Path_1607" data-name="Path 1607" d="M57.07,98.733l-2.858-1.65a2.187,2.187,0,0,0-2.187,0l-2.858,1.65a2.188,2.188,0,0,0-1.094,1.894v3.3a2.188,2.188,0,0,0,1.094,1.894l2.858,1.65a2.187,2.187,0,0,0,2.187,0l2.858-1.65a2.188,2.188,0,0,0,1.094-1.894v-3.3a2.188,2.188,0,0,0-1.094-1.894m.694,5.195a1.792,1.792,0,0,1-.894,1.548l-2.858,1.65a1.787,1.787,0,0,1-1.788,0l-2.858-1.65a1.793,1.793,0,0,1-.894-1.548v-3.3a1.793,1.793,0,0,1,.894-1.548l2.858-1.65a1.787,1.787,0,0,1,1.788,0l2.858,1.65a1.793,1.793,0,0,1,.894,1.548Z" transform="translate(-34.743 -69.951)" fill="#d0d0dc"/>
      <path id="Path_1608" data-name="Path 1608" d="M146.708,49.749a4.669,4.669,0,1,0,4.669,4.669,4.669,4.669,0,0,0-4.669-4.669m0,9a4.33,4.33,0,1,1,4.33-4.33,4.335,4.335,0,0,1-4.33,4.33" transform="translate(-102.653 -35.954)" fill="#d0d0dc"/>
      <path id="Path_1609" data-name="Path 1609" d="M6.124,50.2a1.021,1.021,0,0,0-1.768,0L.139,57.5a1.021,1.021,0,0,0,.884,1.531H9.457a1.021,1.021,0,0,0,.884-1.531Zm3.923,8.155a.674.674,0,0,1-.59.341H1.023a.681.681,0,0,1-.59-1.022l4.217-7.3a.681.681,0,0,1,1.18,0l4.217,7.3a.675.675,0,0,1,0,.681" transform="translate(0 -35.911)" fill="#d0d0dc"/>
      <path id="Path_1610" data-name="Path 1610" d="M56.641,50.941H50.426a1.392,1.392,0,0,0-1.392,1.393v6.214a1.392,1.392,0,0,0,1.392,1.392h6.215a1.392,1.392,0,0,0,1.392-1.392V52.334a1.392,1.392,0,0,0-1.392-1.393m1.065,7.607a1.066,1.066,0,0,1-1.065,1.065H50.426a1.066,1.066,0,0,1-1.065-1.065V52.334a1.067,1.067,0,0,1,1.065-1.065h6.215a1.067,1.067,0,0,1,1.065,1.065Z" transform="translate(-35.437 -36.815)" fill="#d0d0dc"/>
      <path id="Path_1611" data-name="Path 1611" d="M94.46,55.849l2.858,1.65a2.187,2.187,0,0,0,2.187,0l2.858-1.65a2.188,2.188,0,0,0,1.094-1.894v-3.3a2.188,2.188,0,0,0-1.094-1.894L99.5,47.11a2.187,2.187,0,0,0-2.187,0L94.46,48.76a2.188,2.188,0,0,0-1.094,1.894v3.3a2.188,2.188,0,0,0,1.094,1.894m-.694-5.195a1.792,1.792,0,0,1,.894-1.548l2.858-1.65a1.788,1.788,0,0,1,1.788,0l2.858,1.65a1.793,1.793,0,0,1,.894,1.548v3.3a1.793,1.793,0,0,1-.894,1.548l-2.858,1.65a1.788,1.788,0,0,1-1.788,0L94.66,55.5a1.793,1.793,0,0,1-.894-1.548Z" transform="translate(-67.476 -33.835)" fill="#d0d0dc"/>
    </g>
  </g>
</svg>
