<?xml version="1.0" encoding="utf-8"?>
<!-- Generator: Adobe Illustrator 25.2.1, SVG Export Plug-In . SVG Version: 6.00 Build 0)  -->
<svg version="1.1" id="Layer_1" xmlns="http://www.w3.org/2000/svg" xmlns:xlink="http://www.w3.org/1999/xlink" x="0px" y="0px"
	 viewBox="0 0 464 136.9" style="enable-background:new 0 0 464 136.9;" xml:space="preserve">
<style type="text/css">
	.st0{enable-background:new    ;}
	.st1{fill:#060843;}
	.st2{fill:#D96827;}
	.st3{fill:#6D6E71;}
</style>
<g class="st0">
	<path class="st1" d="M61.6,62.4C61.6,79,48.7,87,30.9,87c-14.4,0-31-8.4-31-24.8c0-2.7,0.7-3.3,3.3-3.3h11.2c2.7,0,3.9,0.4,4.2,3.3
		c0.1,1.5,0.7,3,2.2,4.8c2.3,2.8,7,3.9,11.3,3.9c6.2,0,11.3-1.4,11.3-7.9s-10.3-6.7-20.1-9.8C11.6,49.4,0.9,44.7,0.9,29.9
		c0-15.2,13.6-22.7,28-23.2c14.6,0,30.7,6.8,30.7,22.2c0,2.8-0.7,3.3-3.3,3.3H45c-2.2,0-2.5-1.6-3.1-3.2c-0.5-1.2-1-2.1-2.4-3.5
		c-2.2-2.1-6.3-3.2-9.8-3.2c-3.8,0-10.1,1.5-10.1,6.8c0,7.1,17,9.7,21.6,11.6C49.3,43.2,61.6,46.6,61.6,62.4z"/>
	<path class="st1" d="M129.7,11.8v9.7c0,2.1-0.7,3.4-3.3,3.4h-17.6v57c0,2.7-1.3,3.4-3.3,3.4H94c-2.1,0-3.3-0.7-3.3-3.4v-57H72.9
		c-2.7,0-3.3-1.3-3.3-3.4v-9.7c0-2.1,0.7-3.4,3.3-3.4h53.5C129,8.4,129.7,9.6,129.7,11.8z"/>
	<path class="st1" d="M199.6,72.3v9.6c0,2.1-0.7,3.4-3.3,3.4h-51.7c-2.7,0-3.3-1.3-3.3-3.4V11.8c0-2.1,0.7-3.4,3.3-3.4h49.7
		c2.7,0,3.3,1.3,3.3,3.4v9.7c0,2.1-0.7,3.4-3.3,3.4h-34.8v12.7h30.9c2.7,0,3.3,1.3,3.3,3.4v9.1c0,2.1-0.7,3.4-3.3,3.4h-30.9v15.4
		h36.8C198.9,68.9,199.6,70.2,199.6,72.3z"/>
	<path class="st1" d="M274,85.2h-13.6c-2.8,0-4.2-1.1-5.8-3.5l-12.5-18.8c-1-1.4-1.3-2.7-1.3-6v-9.3c0-2.1,0.7-3.4,3.3-3.4h2.3
		c5.7,0,11-4,11-9.5c0-6.1-4.6-9.9-10.6-9.9h-15.3v57c0,2.7-1.3,3.4-3.3,3.4h-11.4c-2.1,0-3.2-0.7-3.2-3.4v-70
		c0-2.1,0.6-3.4,3.2-3.4h29.1c12.6,0,18.1,2.6,23,7.5c4.3,4.2,6.7,10.9,6.7,18.3c0,12.3-8.9,20.8-16,23.2l16.3,23.9
		C276.8,83.1,276.2,85.2,274,85.2z"/>
</g>
<g class="st0">
	<path class="st2" d="M316.5,68.9v13c0,2.7-1.3,3.4-3.3,3.4h-12.8c-2.1,0-3.3-0.7-3.3-3.4v-13c0-2.7,1.3-3.4,3.3-3.4h12.8
		C315.3,65.5,316.5,66.2,316.5,68.9z"/>
</g>
<g class="st0">
	<path class="st1" d="M361.6,87c-13.7,0-30.9-8.1-30.9-26.4V33c0-18.3,17.2-26.4,30.9-26.4c14.3,0,28.5,7.4,30,22.2
		c0,2.8-0.9,3.4-3.6,3.4h-11.1c-2.4,0-2.5-2.2-3.5-3.6c-2.4-3.9-5.7-5.6-11.9-5.6c-7.6,0-12.8,4.3-12.8,11.7V59
		c0,7.5,5.2,11.7,12.8,11.7c6.2,0,11.2-2.3,12.1-7.9c0.3-2.3,0.6-4.2,3.1-4.2H388c2.5,0,3.5,1.2,3.5,4C391.5,77.5,375.9,87,361.6,87
		z"/>
	<path class="st1" d="M465.6,60.6c0,18.5-17.3,26.4-31,26.4s-30.8-7.9-30.8-26.4V33c0-18.5,17.1-26.4,30.8-26.4s31,7.9,31,26.4V60.6
		z M447.5,34.6c0-7.5-5.3-11.8-12.9-11.8c-7.5,0-12.8,4.3-12.8,11.8v24.3c0,7.5,5.3,11.8,12.8,11.8c7.6,0,12.9-4.3,12.9-11.8V34.6z"
		/>
</g>
<g class="st0">
	<path class="st3" d="M27.3,95.3l-11.5,21.4v11.2h-4.2v-11L0,95.3h4.3l9.4,16.6L23,95.3H27.3z"/>
	<path class="st3" d="M44.9,104.7c1.8,1.1,3.2,2.5,4.2,4.4s1.5,4,1.5,6.4s-0.5,4.6-1.5,6.5s-2.4,3.4-4.2,4.4
		c-1.8,1.1-3.8,1.6-6.1,1.6s-4.4-0.5-6.2-1.6s-3.2-2.5-4.2-4.4s-1.5-4-1.5-6.5c0-2.4,0.5-4.6,1.5-6.4c1-1.9,2.4-3.3,4.2-4.4
		c1.8-1.1,3.9-1.6,6.2-1.6C41.1,103.1,43.1,103.6,44.9,104.7z M34.7,108c-1.2,0.7-2.1,1.8-2.8,3.1c-0.7,1.3-1,2.8-1,4.5
		s0.3,3.2,1,4.6c0.7,1.3,1.6,2.4,2.8,3.1s2.5,1.1,4,1.1s2.8-0.4,4-1.1s2.1-1.8,2.8-3.1s1-2.9,1-4.6s-0.3-3.2-1-4.5s-1.6-2.4-2.8-3.1
		s-2.5-1.1-4-1.1C37.3,106.9,35.9,107.2,34.7,108z"/>
	<path class="st3" d="M76.8,103.2v24.6h-4.1v-5.2c-1.5,3.5-4.4,5.3-8.6,5.4c-2.7,0-4.8-0.8-6.3-2.5s-2.3-4-2.3-7v-15.2h4.1v14.1
		c0,2.1,0.5,3.7,1.6,4.9c1.1,1.2,2.5,1.7,4.4,1.7c2.2,0,3.9-0.8,5.1-2.4c1.3-1.6,1.9-3.6,1.9-6.1v-12.1h4.2V103.2z"/>
	<path class="st3" d="M92,104.5c1.4-0.9,3.1-1.4,5-1.4v4.2c-2.4-0.1-4.3,0.6-5.7,2c-1.5,1.4-2.3,3.3-2.5,5.6v13h-4.1v-24.6h4.1v5.3
		C89.5,106.8,90.6,105.4,92,104.5z"/>
	<path class="st3" d="M131.5,104.7c1.7,1.1,3,2.5,3.9,4.4s1.4,4.1,1.4,6.5s-0.5,4.6-1.4,6.4c-0.9,1.9-2.2,3.3-3.9,4.4
		c-1.7,1-3.6,1.6-5.8,1.6c-2,0-3.7-0.4-5.2-1.3s-2.7-2.1-3.5-3.7v13.9h-4.1v-33.7h4.1v4.9c0.8-1.6,2-2.9,3.5-3.7
		c1.5-0.9,3.2-1.3,5.1-1.3C127.9,103.1,129.8,103.6,131.5,104.7z M128.9,123.1c1.2-0.7,2.1-1.8,2.8-3.1c0.7-1.3,1-2.8,1-4.5
		c0-1.6-0.3-3.1-1-4.5c-0.7-1.3-1.6-2.4-2.8-3.1s-2.5-1.1-4-1.1s-2.8,0.4-4,1.1s-2.1,1.8-2.8,3.1c-0.7,1.3-1,2.8-1,4.5
		s0.3,3.2,1,4.5s1.6,2.4,2.8,3.1s2.5,1.1,4,1.1S127.7,123.9,128.9,123.1z"/>
	<path class="st3" d="M149.8,104.5c1.4-0.9,3.1-1.4,5-1.4v4.2c-2.4-0.1-4.3,0.6-5.7,2c-1.5,1.4-2.3,3.3-2.5,5.6v13h-4.1v-24.6h4.1
		v5.3C147.3,106.8,148.4,105.4,149.8,104.5z"/>
	<path class="st3" d="M175,104.7c1.8,1.1,3.2,2.5,4.2,4.4s1.5,4,1.5,6.4s-0.5,4.6-1.5,6.5s-2.4,3.4-4.2,4.4
		c-1.8,1.1-3.8,1.6-6.1,1.6s-4.4-0.5-6.2-1.6s-3.2-2.5-4.2-4.4s-1.5-4-1.5-6.5c0-2.4,0.5-4.6,1.5-6.4c1-1.9,2.4-3.3,4.2-4.4
		s3.9-1.6,6.2-1.6C171.1,103.1,173.2,103.6,175,104.7z M164.8,108c-1.2,0.7-2.1,1.8-2.8,3.1c-0.7,1.3-1,2.8-1,4.5s0.3,3.2,1,4.6
		c0.7,1.3,1.6,2.4,2.8,3.1s2.5,1.1,4,1.1s2.8-0.4,4-1.1s2.1-1.8,2.8-3.1s1-2.9,1-4.6s-0.3-3.2-1-4.5s-1.6-2.4-2.8-3.1
		s-2.5-1.1-4-1.1S166,107.2,164.8,108z"/>
	<path class="st3" d="M196,107c-1.5,0-2.9,0.4-4,1.1s-2.1,1.7-2.8,3s-1,2.8-1,4.5s0.3,3.2,1,4.5s1.6,2.3,2.7,3
		c1.2,0.7,2.5,1.1,4,1.1s2.8-0.3,4-0.8s2.2-1.3,3-2.3l2.3,2.5c-1,1.4-2.4,2.5-4,3.2s-3.4,1.1-5.5,1.1c-2.2,0-4.2-0.5-6-1.6
		c-1.7-1.1-3.1-2.5-4.1-4.4s-1.5-4-1.5-6.4s0.5-4.6,1.5-6.5s2.3-3.4,4.1-4.4c1.7-1.1,3.7-1.6,6-1.6c2,0,3.7,0.3,5.3,1
		c1.6,0.6,2.9,1.6,3.9,2.8l-2.2,3C200.7,107.9,198.5,107,196,107z"/>
	<path class="st3" d="M227.3,106.5c1.8,2.3,2.8,5.4,2.8,9.4c0,0.6,0,1.1,0,1.4h-18.3c0.3,2.2,1.2,4,2.6,5.3c1.4,1.3,3.2,2,5.2,2
		c1.4,0,2.6-0.3,3.8-0.8s2.2-1.3,3.1-2.2l2.2,2.5c-1.1,1.3-2.5,2.3-4.1,3s-3.4,1.1-5.3,1.1c-2.3,0-4.3-0.5-6.1-1.6
		c-1.8-1-3.1-2.5-4.1-4.4s-1.5-4.1-1.5-6.5s0.5-4.6,1.5-6.4c1-1.9,2.3-3.4,4.1-4.4c1.7-1.1,3.7-1.6,6-1.6
		C222.8,103.1,225.5,104.2,227.3,106.5z M226.4,113.9c-0.1-2.2-0.8-4-2.1-5.3s-3-1.9-5.1-1.9c-2,0-3.7,0.7-5.1,2s-2.2,3.1-2.4,5.3
		L226.4,113.9L226.4,113.9z"/>
	<path class="st3" d="M245.1,107.2c-1.2-0.4-2.3-0.6-3.3-0.6c-1.2,0-2.2,0.2-3,0.7c-0.7,0.5-1.1,1.2-1.1,2.2s0.4,1.7,1.2,2.3
		c0.8,0.5,2.1,1,3.8,1.6c1.6,0.5,2.9,1,3.9,1.5s1.9,1.2,2.6,2.2c0.7,1,1.1,2.2,1.1,3.8c0,2.3-0.8,4.1-2.5,5.3
		c-1.6,1.2-3.7,1.8-6.1,1.8c-1.7,0-3.4-0.3-5-0.9s-3-1.4-4.1-2.5l1.5-3.2c1,0.9,2.2,1.7,3.6,2.2c1.4,0.6,2.8,0.8,4.1,0.8
		s2.4-0.3,3.2-0.8s1.2-1.3,1.2-2.4s-0.4-2-1.3-2.5c-0.9-0.6-2.2-1.1-3.9-1.7c-1.5-0.5-2.8-0.9-3.8-1.4s-1.8-1.2-2.5-2.1
		s-1-2.1-1-3.6c0-2.3,0.8-4,2.4-5.2c1.6-1.1,3.5-1.7,5.9-1.7c1.4,0,2.8,0.2,4.1,0.6c1.4,0.4,2.5,1,3.5,1.7l-1.5,3.3
		C247.3,108.1,246.3,107.6,245.1,107.2z"/>
	<path class="st3" d="M265.2,107.2c-1.2-0.4-2.3-0.6-3.3-0.6c-1.2,0-2.2,0.2-3,0.7c-0.7,0.5-1.1,1.2-1.1,2.2s0.4,1.7,1.2,2.3
		c0.8,0.5,2.1,1,3.8,1.6c1.6,0.5,2.9,1,3.9,1.5s1.9,1.2,2.6,2.2s1.1,2.2,1.1,3.8c0,2.3-0.8,4.1-2.5,5.3c-1.6,1.2-3.7,1.8-6.1,1.8
		c-1.7,0-3.4-0.3-5-0.9s-3-1.4-4.1-2.5l1.5-3.2c1,0.9,2.1,1.7,3.6,2.2c1.4,0.6,2.8,0.8,4.1,0.8s2.4-0.3,3.2-0.8
		c0.8-0.5,1.2-1.3,1.2-2.4s-0.4-2-1.3-2.5s-2.2-1.1-3.9-1.7c-1.5-0.5-2.8-0.9-3.8-1.4s-1.8-1.2-2.5-2.1s-1-2.1-1-3.6
		c0-2.3,0.8-4,2.4-5.2c1.6-1.1,3.5-1.7,5.9-1.7c1.4,0,2.8,0.2,4.1,0.6c1.4,0.4,2.5,1,3.5,1.7l-1.5,3.3
		C267.4,108.1,266.4,107.6,265.2,107.2z"/>
	<path class="st3" d="M291.2,94.2c0.5,0.5,0.7,1.2,0.7,2s-0.2,1.5-0.7,2s-1.1,0.8-1.8,0.8c-0.7,0-1.3-0.3-1.8-0.8s-0.7-1.2-0.7-2
		s0.2-1.5,0.7-2s1.1-0.8,1.8-0.8C290.1,93.4,290.7,93.7,291.2,94.2z M287.3,103.2h4.1v24.6h-4.1V103.2z"/>
	<path class="st3" d="M318.5,105.6c1.5,1.7,2.3,4,2.3,7v15.2h-4.1v-14.1c0-2.1-0.5-3.7-1.6-4.9c-1.1-1.2-2.6-1.7-4.5-1.7
		c-2.1,0-3.8,0.7-5.1,2.1c-1.3,1.4-2,3.2-2.2,5.4v13.2h-4.1v-24.6h4.1v5.2c1.5-3.5,4.5-5.3,8.8-5.4
		C314.9,103.1,317,103.9,318.5,105.6z"/>
	<path class="st3" d="M349,107.2c-1.2-0.4-2.3-0.6-3.3-0.6c-1.2,0-2.2,0.2-3,0.7s-1.1,1.2-1.1,2.2s0.4,1.7,1.2,2.3
		c0.8,0.5,2.1,1,3.8,1.6c1.6,0.5,2.9,1,3.9,1.5s1.9,1.2,2.6,2.2s1.1,2.2,1.1,3.8c0,2.3-0.8,4.1-2.5,5.3c-1.6,1.2-3.7,1.8-6.1,1.8
		c-1.7,0-3.4-0.3-5-0.9s-3-1.4-4.1-2.5l1.5-3.2c1,0.9,2.1,1.7,3.6,2.2c1.4,0.6,2.8,0.8,4.1,0.8c1.3,0,2.4-0.3,3.2-0.8
		c0.8-0.5,1.2-1.3,1.2-2.4s-0.4-2-1.3-2.5c-0.9-0.6-2.2-1.1-3.9-1.7c-1.5-0.5-2.8-0.9-3.8-1.4s-1.8-1.2-2.5-2.1s-1-2.1-1-3.6
		c0-2.3,0.8-4,2.4-5.2c1.6-1.1,3.5-1.7,5.9-1.7c1.4,0,2.8,0.2,4.1,0.6c1.4,0.4,2.5,1,3.5,1.7l-1.5,3.3
		C351.3,108.1,350.2,107.6,349,107.2z"/>
	<path class="st3" d="M379.2,105.6c1.5,1.7,2.3,4,2.3,7v15.2h-4.1v-14.1c0-2.1-0.5-3.7-1.6-4.9c-1.1-1.2-2.6-1.7-4.5-1.7
		c-2.2,0-4,0.8-5.3,2.4s-2,3.6-2,6.1v12.1h-4.1V93.3h4.1v15.2c1.5-3.6,4.5-5.4,8.8-5.4C375.5,103.1,377.7,103.9,379.2,105.6z"/>
	<path class="st3" d="M402.9,127.9v-3.4c-1.7,2.4-4.4,3.6-8.1,3.6c-1.6,0-3-0.3-4.2-1s-2.1-1.6-2.8-2.7c-0.7-1.1-1-2.4-1-3.9
		c0-2.2,0.8-3.9,2.3-5.2c1.5-1.3,3.7-1.9,6.4-2h7.3v-1.2c0-1.7-0.5-3.1-1.5-4s-2.5-1.4-4.4-1.4c-2.3,0-4.7,0.9-7.1,2.7l-1.7-3
		c1.7-1.1,3.2-2,4.6-2.5s3.1-0.8,5.1-0.8c2.9,0,5.1,0.8,6.7,2.3s2.4,3.6,2.4,6.3v16.2C406.9,127.9,402.9,127.9,402.9,127.9z
		 M400.5,123c1.3-1,2.1-2.3,2.4-3.9v-2.5h-6.8c-1.8,0-3.2,0.3-4.1,0.9s-1.3,1.5-1.3,2.8s0.5,2.3,1.4,3s2.1,1.1,3.6,1.1
		C397.5,124.5,399.1,124,400.5,123z"/>
	<path class="st3" d="M432.8,104.7c1.7,1.1,3,2.5,3.9,4.4s1.4,4.1,1.4,6.5s-0.5,4.6-1.4,6.4c-0.9,1.9-2.2,3.3-3.9,4.4
		c-1.7,1-3.6,1.6-5.8,1.6c-2,0-3.7-0.4-5.2-1.3s-2.7-2.1-3.5-3.7v13.9h-4.1v-33.7h4.1v4.9c0.8-1.6,2-2.9,3.5-3.7
		c1.5-0.9,3.2-1.3,5.1-1.3C429.2,103.1,431.1,103.6,432.8,104.7z M430.2,123.1c1.2-0.7,2.1-1.8,2.8-3.1c0.7-1.3,1-2.8,1-4.5
		c0-1.6-0.3-3.1-1-4.5c-0.7-1.3-1.6-2.4-2.8-3.1c-1.2-0.7-2.5-1.1-4-1.1s-2.8,0.4-4,1.1s-2.1,1.8-2.8,3.1c-0.7,1.3-1,2.8-1,4.5
		s0.3,3.2,1,4.5s1.6,2.4,2.8,3.1s2.5,1.1,4,1.1S429.1,123.9,430.2,123.1z"/>
	<path class="st3" d="M461.2,106.5c1.8,2.3,2.8,5.4,2.8,9.4c0,0.6,0,1.1,0,1.4h-18.3c0.3,2.2,1.2,4,2.6,5.3s3.2,2,5.2,2
		c1.4,0,2.6-0.3,3.8-0.8c1.2-0.5,2.2-1.3,3.1-2.2l2.2,2.5c-1.1,1.3-2.5,2.3-4.1,3s-3.4,1.1-5.3,1.1c-2.3,0-4.3-0.5-6.1-1.6
		c-1.8-1-3.1-2.5-4.1-4.4s-1.5-4.1-1.5-6.5s0.5-4.6,1.5-6.4s2.3-3.4,4.1-4.4c1.7-1.1,3.7-1.6,6-1.6
		C456.7,103.1,459.4,104.2,461.2,106.5z M460.3,113.9c-0.1-2.2-0.8-4-2.1-5.3c-1.3-1.3-3-1.9-5.1-1.9c-2,0-3.7,0.7-5.1,2
		s-2.2,3.1-2.4,5.3L460.3,113.9L460.3,113.9z"/>
</g>
</svg>
